<?xml version="1.0" encoding="utf-8"?>
<svg id="master-artboard" viewBox="0 0 1400 980" version="1.1" xmlns="http://www.w3.org/2000/svg" x="0px" y="0px" style="enable-background:new 0 0 336 235.2;" width="1400px" height="980px"><rect id="ee-background" x="0" y="0" width="1400" height="980" style="fill: white; fill-opacity: 0; pointer-events: none;"/>














<g transform="matrix(4.157749176025391, 0, 0, 4.157749176025391, -1563.4056407660246, -1763.2150881141424)"><desc>Created with Fabric.js 5.2.4</desc><path d="M 0 0 H 1080 V 1080 H 0 V 0 Z" fill="transparent"/><g transform="matrix(1 0 0 1 540 540)" id="95d4a0ec-eac2-44da-9f15-2cb9c45ebe00">
<path d="M -540 -540 H 540 V 540 H -540 V -540 Z" style="stroke: none; stroke-width: 1; stroke-dasharray: none; stroke-linecap: butt; stroke-dashoffset: 0; stroke-linejoin: miter; stroke-miterlimit: 4; fill: rgb(255,255,255); fill-rule: nonzero; opacity: 1; visibility: hidden;" vector-effect="non-scaling-stroke"/>
</g><g transform="matrix(1 0 0 1 540 540)" id="2bfbe24e-0d76-4174-ab0b-7cb0aaf62b88">
</g><g transform="matrix(1 0 0 1 540 540)">
<g style="" vector-effect="non-scaling-stroke">
		<g transform="matrix(1 0 0 1 0 0)">
<path d="M -540 -540 H 540 V 540 H -540 V -540 Z" style="stroke: none; stroke-width: 1; stroke-dasharray: none; stroke-linecap: butt; stroke-dashoffset: 0; stroke-linejoin: miter; stroke-miterlimit: 4; fill: rgb(255,255,255); fill-rule: nonzero; opacity: 1; visibility: hidden;" vector-effect="non-scaling-stroke"/>
</g>
		<g transform="matrix(1 0 0 1 0 0)">
<path style="stroke: none; stroke-width: 1; stroke-dasharray: none; stroke-linecap: butt; stroke-dashoffset: 0; stroke-linejoin: miter; stroke-miterlimit: 4; fill: rgb(255,255,255); fill-rule: nonzero; opacity: 1;" vector-effect="non-scaling-stroke" transform=" translate(-107.1, -107.1)" d="M 194.368 0 L 31.734 0 C 29.544 0 27.767000000000003 1.774 27.767000000000003 3.967 L 27.767000000000003 19.834 L 15.867000000000003 19.834 L 15.867000000000003 27.767 L 27.767000000000003 27.767 L 27.767000000000003 43.634 L 15.867000000000003 43.634 L 15.867000000000003 51.567 L 27.767000000000003 51.567 L 27.767000000000003 67.434 L 15.867000000000003 67.434 L 15.867000000000003 75.36699999999999 L 27.767000000000003 75.36699999999999 L 27.767000000000003 91.234 L 15.867000000000003 91.234 L 15.867000000000003 99.167 L 27.767000000000003 99.167 L 27.767000000000003 115.034 L 15.867000000000003 115.034 L 15.867000000000003 122.96700000000001 L 27.767000000000003 122.96700000000001 L 27.767000000000003 138.834 L 15.867000000000003 138.834 L 15.867000000000003 146.767 L 27.767000000000003 146.767 L 27.767000000000003 162.634 L 15.867000000000003 162.634 L 15.867000000000003 170.56699999999998 L 27.767000000000003 170.56699999999998 L 27.767000000000003 186.43399999999997 L 15.867000000000003 186.43399999999997 L 15.867000000000003 194.36699999999996 L 27.767000000000003 194.36699999999996 L 27.767000000000003 210.23399999999995 C 27.767000000000003 212.42599999999996 29.543000000000003 214.20099999999996 31.734 214.20099999999996 L 194.36700000000002 214.20099999999996 C 196.55700000000002 214.20099999999996 198.33400000000003 212.42699999999996 198.33400000000003 210.23399999999995 L 198.33400000000003 3.967 C 198.334 1.774 196.558 0 194.368 0 z M 190.401 206.267 L 35.70100000000002 206.267 L 35.70100000000002 194.367 L 47.60100000000002 194.367 L 47.60100000000002 186.434 L 35.70100000000002 186.434 L 35.70100000000002 170.567 L 47.60100000000002 170.567 L 47.60100000000002 162.63400000000001 L 35.70100000000002 162.63400000000001 L 35.70100000000002 146.76700000000002 L 47.60100000000002 146.76700000000002 L 47.60100000000002 138.83400000000003 L 35.70100000000002 138.83400000000003 L 35.70100000000002 122.96700000000003 L 47.60100000000002 122.96700000000003 L 47.60100000000002 115.03400000000002 L 35.70100000000002 115.03400000000002 L 35.70100000000002 99.167 L 47.60100000000002 99.167 L 47.60100000000002 91.23400000000001 L 35.70100000000002 91.23400000000001 L 35.70100000000002 75.367 L 47.60100000000002 75.367 L 47.60100000000002 67.434 L 35.70100000000002 67.434 L 35.70100000000002 51.567 L 47.60100000000002 51.567 L 47.60100000000002 43.634 L 35.70100000000002 43.634 L 35.70100000000002 27.767 L 47.60100000000002 27.767 L 47.60100000000002 19.834 L 35.70100000000002 19.834 L 35.70100000000002 7.933999999999999 L 190.401 7.933999999999999 L 190.401 206.267 z" stroke-linecap="round"/>
</g>
		<g transform="matrix(1 0 0 1 9.92 -43.63)">
<path style="stroke: none; stroke-width: 1; stroke-dasharray: none; stroke-linecap: butt; stroke-dashoffset: 0; stroke-linejoin: miter; stroke-miterlimit: 4; fill: rgb(255,255,255); fill-rule: nonzero; opacity: 1;" vector-effect="non-scaling-stroke" transform=" translate(-117.02, -63.47)" d="M 59.501 99.167 L 71.401 99.167 L 99.16799999999999 99.167 L 126.93499999999999 99.167 L 174.535 99.167 C 176.725 99.167 178.502 97.393 178.502 95.2 L 178.502 31.733 C 178.502 29.541 176.726 27.766000000000002 174.535 27.766000000000002 L 59.501 27.766000000000002 C 57.311 27.766000000000002 55.534 29.540000000000003 55.534 31.733 L 55.534 95.2 C 55.534 97.392 57.311 99.167 59.501 99.167 z M 77.465 91.233 L 85.284 73.364 L 93.10300000000001 91.233 L 77.465 91.233 z M 105.232 91.233 L 113.051 73.364 L 120.87 91.233 L 105.232 91.233 z M 63.468 35.7 L 170.56799999999998 35.7 L 170.56799999999998 91.233 L 129.528 91.233 L 116.68499999999999 61.878 C 116.05299999999998 60.433 114.62799999999999 59.5 113.05199999999999 59.5 C 111.475 59.5 110.05 60.434 109.419 61.878 L 99.169 85.306 L 88.919 61.878 C 88.288 60.433 86.862 59.499 85.286 59.499 C 83.71000000000001 59.499 82.284 60.433 81.653 61.877 L 68.808 91.233 L 63.468 91.233 L 63.468 35.7 z" stroke-linecap="round"/>
</g>
		<g transform="matrix(1 0 0 1 9.92 47.6)">
<path style="stroke: none; stroke-width: 1; stroke-dasharray: none; stroke-linecap: butt; stroke-dashoffset: 0; stroke-linejoin: miter; stroke-miterlimit: 4; fill: rgb(255,255,255); fill-rule: nonzero; opacity: 1;" vector-effect="non-scaling-stroke" transform=" translate(-117.02, -154.7)" d="M 59.501 190.4 L 111.068 190.4 L 162.635 190.4 L 174.535 190.4 C 176.725 190.4 178.502 188.626 178.502 186.433 L 178.502 122.966 C 178.502 120.774 176.726 118.999 174.535 118.999 L 59.501 118.999 C 57.311 118.999 55.534 120.773 55.534 122.966 L 55.534 186.433 C 55.534 188.626 57.311 190.4 59.501 190.4 z M 118.825 182.467 L 136.851 157.50900000000001 L 154.877 182.467 L 118.825 182.467 z M 63.468 126.933 L 170.56799999999998 126.933 L 170.56799999999998 182.466 L 164.664 182.466 L 140.06699999999998 148.409 C 138.57599999999996 146.34799999999998 135.128 146.34799999999998 133.63699999999997 148.409 L 109.03999999999996 182.466 L 63.468 182.466 L 63.468 126.933 z" stroke-linecap="round"/>
</g>
		<g transform="matrix(1 0 0 1 39.67 -51.57)">
<path style="stroke: none; stroke-width: 1; stroke-dasharray: none; stroke-linecap: butt; stroke-dashoffset: 0; stroke-linejoin: miter; stroke-miterlimit: 4; fill: rgb(255,255,255); fill-rule: nonzero; opacity: 1;" vector-effect="non-scaling-stroke" transform=" translate(-146.77, -55.53)" d="M 146.768 71.4 C 155.517 71.4 162.635 64.284 162.635 55.533 C 162.635 46.782000000000004 155.517 39.666 146.768 39.666 C 138.019 39.666 130.901 46.782 130.901 55.533 C 130.901 64.284 138.019 71.4 146.768 71.4 z M 146.768 47.6 C 151.143 47.6 154.701 51.160000000000004 154.701 55.533 C 154.701 59.906 151.143 63.466 146.768 63.466 C 142.393 63.466 138.835 59.906 138.835 55.533 C 138.835 51.16 142.392 47.6 146.768 47.6 z" stroke-linecap="round"/>
</g>
		<g transform="matrix(1 0 0 1 -19.83 39.67)">
<path style="stroke: none; stroke-width: 1; stroke-dasharray: none; stroke-linecap: butt; stroke-dashoffset: 0; stroke-linejoin: miter; stroke-miterlimit: 4; fill: rgb(255,255,255); fill-rule: nonzero; opacity: 1;" vector-effect="non-scaling-stroke" transform=" translate(-87.27, -146.77)" d="M 87.268 130.9 C 78.519 130.9 71.401 138.01600000000002 71.401 146.767 C 71.401 155.518 78.51899999999999 162.634 87.268 162.634 C 96.017 162.634 103.135 155.51799999999997 103.135 146.767 C 103.134 138.016 96.017 130.9 87.268 130.9 z M 87.268 154.7 C 82.893 154.7 79.33500000000001 151.14 79.33500000000001 146.767 C 79.33500000000001 142.394 82.893 138.834 87.268 138.834 C 91.643 138.834 95.201 142.394 95.201 146.767 C 95.201 151.14 91.643 154.7 87.268 154.7 z" stroke-linecap="round"/>
</g>
</g>
</g></g></svg>