<?xml version="1.0" encoding="utf-8"?>
<svg id="master-artboard" viewBox="0 0 1400 980" version="1.1" xmlns="http://www.w3.org/2000/svg" x="0px" y="0px" style="enable-background:new 0 0 336 235.2;" width="1400px" height="980px"><rect id="ee-background" x="0" y="0" width="1400" height="980" style="fill: white; fill-opacity: 0; pointer-events: none;"/>














<g transform="matrix(2.6527781401309167, 0, 0, 2.6527781401309167, -725.0001834403892, -937.8210428412683)"><desc>Created with Fabric.js 5.2.4</desc><path d="M 0 0 H 1080 V 1080 H 0 V 0 Z" fill="transparent"/><g transform="matrix(1 0 0 1 540 540)" id="95d4a0ec-eac2-44da-9f15-2cb9c45ebe00">
<path d="M -540 -540 H 540 V 540 H -540 V -540 Z" style="stroke: none; stroke-width: 1; stroke-dasharray: none; stroke-linecap: butt; stroke-dashoffset: 0; stroke-linejoin: miter; stroke-miterlimit: 4; fill: rgb(255,255,255); fill-rule: nonzero; opacity: 1; visibility: hidden;" vector-effect="non-scaling-stroke"/>
</g><g transform="matrix(1 0 0 1 540 540)" id="2bfbe24e-0d76-4174-ab0b-7cb0aaf62b88">
</g><g transform="matrix(1 0 0 1 540 620.58)">
<g style="" vector-effect="non-scaling-stroke">
		<g transform="matrix(1 0 0 1 -490 -490)">
<path d="M -50 -50 H 50 V 50 H -50 V -50 Z" style="stroke: none; stroke-width: 1; stroke-dasharray: none; stroke-linecap: butt; stroke-dashoffset: 0; stroke-linejoin: miter; stroke-miterlimit: 4; fill: rgb(255,255,255); fill-opacity: 0; fill-rule: nonzero; opacity: 1;" vector-effect="non-scaling-stroke"/>
</g>
		<g transform="matrix(1 0 0 1 0 0)">
<path d="M -540 -540 H 540 V 540 H -540 V -540 Z" style="stroke: none; stroke-width: 1; stroke-dasharray: none; stroke-linecap: butt; stroke-dashoffset: 0; stroke-linejoin: miter; stroke-miterlimit: 4; fill: rgb(255,255,255); fill-rule: nonzero; opacity: 1; visibility: hidden;" vector-effect="non-scaling-stroke"/>
</g>
		<g transform="matrix(1 0 0 1 0 -87.32)">
<path style="stroke: none; stroke-width: 1; stroke-dasharray: none; stroke-linecap: butt; stroke-dashoffset: 0; stroke-linejoin: miter; stroke-miterlimit: 4; fill: rgb(255,255,255); fill-rule: nonzero; opacity: 1;" vector-effect="non-scaling-stroke" transform=" translate(-251, -251)" d="M 492 115.503 L 478.677 115.503 L 478.677 89.963 C 478.677 84.44 474.20000000000005 79.963 468.677 79.963 L 418.7 79.963 C 413.17699999999996 79.963 408.7 84.44 408.7 89.963 L 408.7 115.50299999999999 L 367.666 115.50299999999999 C 335.222 87.543 293.95 72.19 251 72.19 C 208.05 72.19 166.77800000000002 87.544 134.334 115.503 L 10 115.503 C 4.477 115.503 0 119.98 0 125.503 L 0 376.498 C 0 382.021 4.477 386.498 10 386.498 L 134.334 386.498 C 166.778 414.456 208.051 429.81 251 429.81 C 293.949 429.81 335.222 414.456 367.666 386.497 L 492 386.497 C 497.523 386.497 502 382.02000000000004 502 376.497 L 502 125.503 C 502 119.98 497.523 115.503 492 115.503 z M 428.701 99.964 L 458.678 99.964 L 458.678 115.50399999999999 L 428.701 115.50399999999999 L 428.701 99.964 z M 114.517 366.498 L 20 366.498 L 20 135.503 L 114.518 135.503 L 114.529 135.50199999999998 C 87.39699999999999 167.59699999999998 72.189 208.541 72.189 251.00099999999998 C 72.189 293.46099999999996 87.39699999999999 334.405 114.52799999999999 366.5 L 114.517 366.498 z M 357.205 369.065 C 328.016 395.34 290.298 409.811 251 409.811 C 211.702 409.811 173.98399999999998 395.34 144.79500000000002 369.065 C 111.36300000000001 338.971 92.18900000000002 295.938 92.18900000000002 251 C 92.18900000000002 206.062 111.36300000000003 163.029 144.79500000000002 132.935 C 173.984 106.66 211.702 92.19 251 92.19 C 290.298 92.19 328.016 106.661 357.205 132.936 C 390.637 163.031 409.811 206.063 409.811 251.001 C 409.811 295.939 390.637 338.971 357.205 369.065 z M 482 366.498 L 387.48199999999997 366.498 L 387.47099999999995 366.49899999999997 C 414.60299999999995 334.404 429.80999999999995 293.46 429.80999999999995 250.99999999999997 C 429.80999999999995 208.53999999999996 414.6019999999999 167.59599999999998 387.47099999999995 135.50099999999998 L 387.48199999999997 135.50199999999998 L 418.7 135.50199999999998 L 468.67699999999996 135.50199999999998 L 482 135.50199999999998 L 482 366.498 z" stroke-linecap="round"/>
</g>
		<g transform="matrix(1 0 0 1 0 -87.32)">
<path style="stroke: none; stroke-width: 1; stroke-dasharray: none; stroke-linecap: butt; stroke-dashoffset: 0; stroke-linejoin: miter; stroke-miterlimit: 4; fill: rgb(255,255,255); fill-rule: nonzero; opacity: 1;" vector-effect="non-scaling-stroke" transform=" translate(-251, -251)" d="M 251 122.167 C 179.961 122.167 122.166 179.962 122.166 251.001 C 122.166 322.04 179.961 379.834 251 379.834 C 322.039 379.834 379.834 322.039 379.834 251 C 379.834 179.961 322.039 122.167 251 122.167 z M 251 359.834 C 190.989 359.834 142.166 311.011 142.166 251 C 142.166 190.98899999999998 190.989 142.167 251 142.167 C 311.01099999999997 142.167 359.834 190.99 359.834 251.001 C 359.834 311.012 311.011 359.834 251 359.834 z" stroke-linecap="round"/>
</g>
		<g transform="matrix(1 0 0 1 -41.09 -46.23)">
<path style="stroke: none; stroke-width: 1; stroke-dasharray: none; stroke-linecap: butt; stroke-dashoffset: 0; stroke-linejoin: miter; stroke-miterlimit: 4; fill: rgb(255,255,255); fill-rule: nonzero; opacity: 1;" vector-effect="non-scaling-stroke" transform=" translate(-209.91, -292.09)" d="M 251 323.185 C 211.197 323.185 178.815 290.803 178.815 251 C 178.815 245.477 174.338 241 168.815 241 C 163.292 241 158.815 245.477 158.815 251 C 158.815 301.831 200.16899999999998 343.185 251 343.185 C 256.523 343.185 261 338.708 261 333.185 C 261 327.662 256.523 323.185 251 323.185 z" stroke-linecap="round"/>
</g>
		<g transform="matrix(1 0 0 1 -53.18 -146.18)">
<path style="stroke: none; stroke-width: 1; stroke-dasharray: none; stroke-linecap: butt; stroke-dashoffset: 0; stroke-linejoin: miter; stroke-miterlimit: 4; fill: rgb(255,255,255); fill-rule: nonzero; opacity: 1;" vector-effect="non-scaling-stroke" transform=" translate(-197.82, -192.14)" d="M 176.433 214.985 C 178.107 216.06300000000002 179.982 216.57700000000003 181.83599999999998 216.57700000000003 C 185.123 216.57700000000003 188.34199999999998 214.95800000000003 190.254 211.98900000000003 C 197.202 201.19600000000003 206.909 192.42200000000003 218.327 186.61400000000003 C 223.25 184.11000000000004 225.211 178.09000000000003 222.707 173.16700000000003 C 220.203 168.24400000000003 214.183 166.28400000000002 209.26 168.78700000000003 C 194.68699999999998 176.19900000000004 182.29999999999998 187.39400000000003 173.43599999999998 201.16300000000004 C 170.447 205.808 171.789 211.995 176.433 214.985 z" stroke-linecap="round"/>
</g>
</g>
</g></g></svg>