<svg width="24.000000000000004" height="24.000000000000004" xmlns="http://www.w3.org/2000/svg" fill="none">

 <g>
  <title>Layer 1</title>
  <path id="svg_1" fill="#ffffff" d="m12,1.54545c-6.05521,0 -10.95652,4.87622 -10.95652,10.88225c0,4.4097 2.64262,8.2051 6.44682,9.9126c0.39769,0.1785 0.78714,0.1079 1.09093,-0.1198c0.31134,-0.2334 0.532,-0.6352 0.532,-1.1077l0,-0.5702l-1.35705,-0.1838c-0.00987,-0.0013 -0.0197,-0.0029 -0.02947,-0.0048c-0.74903,-0.1457 -1.25367,-0.4087 -1.62355,-0.7878c-0.31146,-0.3192 -0.50124,-0.7016 -0.66209,-1.0257c-0.01903,-0.0383 -0.03765,-0.0758 -0.05602,-0.1123c-0.2036,-0.4046 -0.34872,-0.6918 -0.48721,-0.9111c-0.13463,-0.2131 -0.23997,-0.3234 -0.34373,-0.3922c-0.26456,-0.1752 -0.5178,-0.4718 -0.5178,-0.8433c0,-0.2038 0.08219,-0.4121 0.26032,-0.5596c0.16785,-0.139 0.36974,-0.1825 0.54522,-0.1825c0.22247,0 0.4312,0.0681 0.60547,0.1463c0.17808,0.0799 0.35441,0.1863 0.51951,0.2963c0.40184,0.2679 0.79812,0.5854 1.13321,0.9755c0.34892,0.4062 0.5955,0.6648 0.96837,0.7177c0.30518,0.0433 0.61733,0.0446 0.86073,0.0335c0.01067,-0.0578 0.02374,-0.119 0.03975,-0.1825c0.02877,-0.114 0.06909,-0.2434 0.12624,-0.3773c-0.2761,-0.0648 -0.57558,-0.1493 -0.87667,-0.2561c-0.65475,-0.2322 -1.38298,-0.5924 -1.87311,-1.1403c-0.5384,-0.6018 -0.87159,-1.1381 -1.05769,-1.7668c-0.18113,-0.6119 -0.21074,-1.2745 -0.21074,-2.0913c0,-1.2489 0.54121,-2.30237 0.94664,-2.86106c-0.13325,-0.42536 -0.27266,-0.97771 -0.33444,-1.50172c-0.03793,-0.32181 -0.05034,-0.6624 0.00087,-0.96737c0.0493,-0.29356 0.17522,-0.6533 0.50387,-0.871c0.31749,-0.21031 0.68865,-0.2017 0.9787,-0.14698c0.30168,0.05691 0.61459,0.18187 0.90235,0.32427c0.46859,0.23189 0.9349,0.54258 1.28426,0.80493c0.60229,-0.1769 1.66703,-0.40432 2.62943,-0.42548c0.0076,-0.00016 0.0152,-0.00016 0.0228,0c0.9632,0.02118 1.9809,0.24856 2.5675,0.42463c0.3492,-0.26217 0.815,-0.57244 1.2831,-0.80408c0.2878,-0.1424 0.6007,-0.26736 0.9024,-0.32427c0.29,-0.05472 0.6612,-0.06333 0.9787,0.14698c0.3286,0.2177 0.4545,0.57744 0.5038,0.871c0.0512,0.30497 0.0388,0.64556 0.0009,0.96737c-0.0618,0.52401 -0.2012,1.07636 -0.3344,1.50172c0.4054,0.55869 0.9466,1.61216 0.9466,2.86106c0,0.8168 -0.0296,1.4794 -0.2107,2.0913c-0.1861,0.6287 -0.5193,1.165 -1.0577,1.7668c-0.4901,0.5479 -1.2184,0.9081 -1.8731,1.1403c-0.3697,0.1311 -0.7369,0.2286 -1.0614,0.2973c0.1229,0.3718 0.1666,0.6728 0.1666,0.8455l0,3.0898c0,0.4709 0.2193,0.872 0.5295,1.1059c0.3028,0.2284 0.6914,0.3005 1.0892,0.1253c3.839,-1.6919 6.5141,-5.4964 6.5141,-9.929c0,-6.00603 -4.9013,-10.88225 -10.9565,-10.88225zm-2.52379,17.16485c-0.25926,0.0371 -0.0015,0.0003 -0.0015,0.0003l-0.00269,0.0003l-0.00839,0.0012l-0.02848,0.0036c-0.02399,0.003 -0.05787,0.007 -0.10023,0.0113c-0.08459,0.0086 -0.20379,0.0188 -0.34638,0.0256c-0.2823,0.0134 -0.6695,0.0141 -1.06651,-0.0422c-0.79151,-0.1124 -1.27157,-0.6726 -1.58318,-1.0362c-0.01009,-0.0118 -0.01999,-0.0233 -0.02972,-0.0347c-0.10006,-0.1165 -0.2096,-0.227 -0.32712,-0.3325c0.10332,0.1905 0.20975,0.402 0.32479,0.6306l0.01001,0.0199c0.01784,0.0355 0.03502,0.0698 0.05168,0.103c0.17449,0.3484 0.29043,0.5798 0.48081,0.7749c0.18548,0.1901 0.47602,0.3735 1.06194,0.4895l1.79364,0.2429c0.25878,0.0351 0.45182,0.2564 0.45182,0.518l0,1.027c0,0.8005 -0.37454,1.5131 -0.9503,1.9447c-0.58331,0.4373 -1.37285,0.5825 -2.14272,0.2369c-4.16172,-1.8679 -7.06368,-6.0258 -7.06368,-10.8667c0,-6.59157 5.37667,-11.9277 12,-11.9277c6.6233,0 12,5.33613 12,11.9277c0,4.8677 -2.9388,9.0356 -7.1375,10.8859c-0.7696,0.3392 -1.5562,0.1909 -2.1368,-0.2469c-0.5732,-0.4323 -0.9455,-1.1433 -0.9455,-1.9412l0,-3.0898c0,-0.07 -0.0489,-0.4743 -0.3225,-1.018c-0.077,-0.153 -0.0743,-0.334 0.0072,-0.4846c0.0816,-0.1505 0.2316,-0.2515 0.4015,-0.2703c0.3422,-0.0378 0.9206,-0.1486 1.5039,-0.3554c0.594,-0.2107 1.1271,-0.498 1.4442,-0.8525c0.4707,-0.5262 0.7051,-0.9298 0.8344,-1.3664c0.1342,-0.4534 0.1676,-0.9814 0.1676,-1.794c0,-1.1407 -0.5996,-2.09952 -0.8758,-2.40832c-0.1273,-0.14225 -0.167,-0.34272 -0.1035,-0.52285c0.139,-0.39456 0.3098,-1.00705 0.3743,-1.55423c0.0325,-0.27559 0.0343,-0.50524 0.0064,-0.6713c-0.0187,-0.1117 -0.0441,-0.15788 -0.0538,-0.17249c-0.018,-0.00488 -0.0771,-0.01599 -0.2066,0.00845c-0.1703,0.03213 -0.3872,0.11239 -0.6334,0.23423c-0.4896,0.24227 -0.9995,0.60054 -1.3164,0.85639c-0.1418,0.11451 -0.333,0.14661 -0.5043,0.0847c-0.4023,-0.14536 -1.5008,-0.42951 -2.5034,-0.45353c-1.0071,0.02411 -2.1686,0.30979 -2.56643,0.45353c-0.17135,0.06191 -0.36253,0.02981 -0.50436,-0.0847c-0.31691,-0.25585 -0.82681,-0.61412 -1.3164,-0.85639c-0.24621,-0.12184 -0.46307,-0.2021 -0.63334,-0.23423c-0.12956,-0.02444 -0.18865,-0.01333 -0.20659,-0.00845c-0.00975,0.01461 -0.03511,0.06079 -0.05387,0.17249c-0.02788,0.16606 -0.0261,0.39571 0.00639,0.6713c0.0645,0.54718 0.23535,1.15967 0.37434,1.55423c0.06345,0.18013 0.02378,0.3806 -0.10348,0.52285c-0.27626,0.3088 -0.87586,1.26762 -0.87586,2.40832c0,0.8126 0.03346,1.3406 0.16767,1.794c0.12923,0.4366 0.36365,0.8402 0.83433,1.3664c0.31713,0.3545 0.85025,0.6418 1.44424,0.8525c0.58325,0.2068 1.16173,0.3176 1.50386,0.3554c0.2151,0.0237 0.3932,0.178 0.4477,0.3877c0.0546,0.2097 -0.0257,0.4315 -0.2017,0.5574c-0.1654,0.1182 -0.2742,0.3299 -0.33594,0.5746c-0.02914,0.1155 -0.04345,0.2218 -0.05029,0.2988c-0.00339,0.0381 -0.00484,0.0679 -0.00546,0.0866l-0.00044,0.019c0.00292,0.2623 -0.1889,0.4864 -0.44816,0.5234z" clip-rule="evenodd" fill-rule="evenodd"/>
 </g>
</svg>