<svg width="45.959" height="45.959" xmlns="http://www.w3.org/2000/svg" xml:space="preserve" version="1.1">

 <g>
  <title>Layer 1</title>
  <g id="svg_1">
   <g id="svg_2">
    <path fill="#ffffff" id="svg_3" d="m5.392,0.492c-3.124,0 -5.392,2.155 -5.392,5.122c0,2.966 2.223,5.119 5.284,5.119c1.588,0 2.956,-0.515 3.957,-1.489c0.96,-0.935 1.489,-2.224 1.488,-3.653c-0.07,-3.002 -2.265,-5.099 -5.337,-5.099zm2.455,7.319c-0.62,0.603 -1.507,0.922 -2.563,0.922c-1.933,0 -3.284,-1.282 -3.284,-3.119c0,-1.867 1.363,-3.122 3.392,-3.122c1.983,0 3.293,1.235 3.338,3.123c-0.001,0.862 -0.314,1.641 -0.883,2.196z"/>
    <path fill="#ffffff" id="svg_4" d="m0.959,45.467l8.988,0l0,-33.045l-8.988,0l0,33.045zm2,-31.045l4.988,0l0,29.044l-4.988,0l0,-29.044z"/>
    <path fill="#ffffff" id="svg_5" d="m33.648,12.422c-4.168,0 -6.72,1.439 -8.198,2.792l-0.281,-2.792l-10.169,0l0,33.044l9.959,0l0,-17.367c0,-0.748 0.303,-2.301 0.493,-2.711c1.203,-2.591 2.826,-2.591 5.284,-2.591c2.831,0 5.223,2.655 5.223,5.797l0,16.874l10,0l0,-18.67c0,-9.878 -6.382,-14.376 -12.311,-14.376zm10.311,31.045l-6,0l0,-14.874c0,-4.227 -3.308,-7.797 -7.223,-7.797c-2.512,0 -5.358,0 -7.099,3.75c-0.359,0.775 -0.679,2.632 -0.679,3.553l0,15.368l-5.958,0l0,-29.045l6.36,0l0.408,4.044l1.639,0l0.293,-0.473c0.667,-1.074 2.776,-3.572 7.948,-3.572c4.966,0 10.311,3.872 10.311,12.374l0,16.672z"/>
   </g>
  </g>
  <g id="svg_6"/>
  <g id="svg_7"/>
  <g id="svg_8"/>
  <g id="svg_9"/>
  <g id="svg_10"/>
  <g id="svg_11"/>
  <g id="svg_12"/>
  <g id="svg_13"/>
  <g id="svg_14"/>
  <g id="svg_15"/>
  <g id="svg_16"/>
  <g id="svg_17"/>
  <g id="svg_18"/>
  <g id="svg_19"/>
  <g id="svg_20"/>
 </g>
</svg>