<svg width="455.861" height="455.861" xmlns="http://www.w3.org/2000/svg" xml:space="preserve" version="1.1">

 <g>
  <title>Layer 1</title>
  <g id="svg_1">
   <g id="svg_2">
    <g id="svg_3">
     <path stroke="#000" fill="#fff" id="svg_4" d="m52.616,139.032l102.427,88.898l-102.427,88.898c-6.162,5.349 -6.823,14.68 -1.474,20.843c5.349,6.162 14.68,6.821 20.842,1.474l105.6,-91.651l40.663,35.292c2.778,2.411 6.231,3.616 9.684,3.616s6.906,-1.205 9.684,-3.616l40.663,-35.292l105.6,91.651c6.162,5.348 15.493,4.688 20.842,-1.474c5.349,-6.163 4.688,-15.494 -1.474,-20.843l-102.427,-88.898l102.427,-88.898c6.163,-5.349 6.823,-14.68 1.474,-20.843c-5.349,-6.163 -14.682,-6.822 -20.842,-1.474c-8.592,7.457 -146.799,127.408 -155.947,135.348c-9.151,-7.942 -147.358,-127.893 -155.947,-135.348c-6.162,-5.348 -15.494,-4.687 -20.842,1.474c-5.349,6.163 -4.688,15.494 1.474,20.843z"/>
     <path stroke="#000" fill="#fff" id="svg_5" d="m441.088,63.154l-426.314,0c-8.159,0 -14.774,6.616 -14.774,14.775l0,300.003c0,8.16 6.615,14.774 14.774,14.774l426.313,0c8.16,0 14.774,-6.614 14.774,-14.774l0,-300.003c0.001,-8.159 -6.613,-14.775 -14.773,-14.775zm-14.774,300.003l-0.001,0l-396.764,0l0,-270.454l396.765,0l0,270.454z"/>
    </g>
   </g>
  </g>
  <g id="svg_6"/>
  <g id="svg_7"/>
  <g id="svg_8"/>
  <g id="svg_9"/>
  <g id="svg_10"/>
  <g id="svg_11"/>
  <g id="svg_12"/>
  <g id="svg_13"/>
  <g id="svg_14"/>
  <g id="svg_15"/>
  <g id="svg_16"/>
  <g id="svg_17"/>
  <g id="svg_18"/>
  <g id="svg_19"/>
  <g id="svg_20"/>
 </g>
</svg>