<?xml version="1.0" encoding="utf-8"?>
<svg id="master-artboard" viewBox="0 0 1400 980" version="1.1" xmlns="http://www.w3.org/2000/svg" x="0px" y="0px" style="enable-background:new 0 0 336 235.2;" width="1400px" height="980px"><rect id="ee-background" x="0" y="0" width="1400" height="980" style="fill: white; fill-opacity: 0; pointer-events: none;"/>














<g transform="matrix(1.6481484174728394, 0, 0, 1.6481484174728394, -195.0001875013113, -415.0000302940607)"><desc>Created with Fabric.js 5.2.4</desc><path d="M 0 0 H 1080 V 1080 H 0 V 0 Z" fill="transparent"/><g transform="matrix(1 0 0 1 540 540)" id="95d4a0ec-eac2-44da-9f15-2cb9c45ebe00">
<path d="M -540 -540 H 540 V 540 H -540 V -540 Z" style="stroke: none; stroke-width: 1; stroke-dasharray: none; stroke-linecap: butt; stroke-dashoffset: 0; stroke-linejoin: miter; stroke-miterlimit: 4; fill: rgb(255,255,255); fill-rule: nonzero; opacity: 1; visibility: hidden;" vector-effect="non-scaling-stroke"/>
</g><g transform="matrix(1 0 0 1 540 540)" id="2bfbe24e-0d76-4174-ab0b-7cb0aaf62b88">
</g><g transform="matrix(1.57 0 0 1.57 540 540)" id="XMLID_1119_">
<path style="stroke: rgb(0,0,0); stroke-width: 0; stroke-dasharray: none; stroke-linecap: butt; stroke-dashoffset: 0; stroke-linejoin: miter; stroke-miterlimit: 4; fill: rgb(255,255,255); fill-rule: nonzero; opacity: 1;" vector-effect="non-scaling-stroke" transform=" translate(-186.42, -186.42)" d="M 266.46 220.1 L 259.78 212.66 L 342.12199999999996 118.655 L 302.571 0 L 190.446 135.444 L 69.883 1.172 L 30.723 118.655 L 120.234 220.845 C 97.142 217.477 72.794 224.655 55.06099999999999 242.389 C 25.255999999999993 272.193 25.255999999999993 320.688 55.06099999999999 350.492 C 69.963 365.394 89.53799999999998 372.845 109.112 372.845 C 128.68699999999998 372.845 148.261 365.394 163.164 350.492 C 177.368 336.288 185.27599999999998 317.476 185.529 297.42900000000003 L 186.423 296.408 L 187.317 297.42900000000003 C 187.57 317.47600000000006 195.478 336.288 209.68200000000002 350.492 C 224.584 365.394 244.15900000000002 372.845 263.733 372.845 C 283.308 372.845 302.882 365.394 317.785 350.492 C 347.59000000000003 320.68800000000005 347.59000000000003 272.193 317.785 242.389 C 303.573 228.178 285.115 220.76 266.46 220.1 z M 291.206 60.774 L 308.22400000000005 111.825 L 239.59300000000005 190.17700000000002 L 210.71100000000004 158.01100000000002 L 291.206 60.774 z M 82.03 59.603 L 219.683 212.90800000000002 L 186.423 250.87900000000002 L 64.622 111.826 L 82.03 59.603 z M 141.951 329.278 C 123.845 347.384 94.383 347.385 76.27399999999999 329.278 C 58.16699999999999 311.17100000000005 58.16699999999999 281.708 76.27399999999999 263.601 C 85.32799999999999 254.548 97.21999999999998 250.021 109.112 250.021 C 121.005 250.021 132.897 254.54799999999997 141.951 263.601 C 160.058 281.709 160.058 311.171 141.951 329.278 z M 296.571 329.278 C 278.46400000000006 347.386 249.002 347.385 230.894 329.278 L 230.894 329.278 C 212.787 311.17100000000005 212.787 281.708 230.894 263.601 C 249 245.495 278.462 245.493 296.571 263.601 C 314.678 281.709 314.678 311.171 296.571 329.278 z" stroke-linecap="round"/>
</g></g></svg>