<svg width="24" height="24" xmlns="http://www.w3.org/2000/svg" fill="none">

 <g>
  <title>Layer 1</title>
  <path id="svg_1" fill="#ffffff" d="m5.78754,14.0196c0.04377,0.0148 0.08795,0.0252 0.13209,0.0316c0.04814,0.1132 0.11033,0.2595 0.18289,0.4306c0.17707,0.4176 0.41566,0.9825 0.66194,1.5717c0.50224,1.2017 1.00886,2.4404 1.12075,2.795c0.13851,0.4383 0.28492,0.7363 0.44475,0.9398c0.08264,0.1052 0.17823,0.197 0.29007,0.2666c0.0563,0.035 0.11577,0.0637 0.17785,0.0851c0.00274,0.001 0.00547,0.0019 0.0082,0.0028c0.32002,0.1208 0.61178,0.0705 0.79445,0.009c0.09774,-0.033 0.17682,-0.0727 0.23287,-0.1049c0.02858,-0.0165 0.05272,-0.0318 0.07198,-0.0448l0.00454,-0.003l2.82618,-1.7625l3.2646,2.5028c0.0481,0.0369 0.1007,0.0679 0.1563,0.0922c0.3922,0.1711 0.772,0.2308 1.1292,0.182c0.3567,-0.0487 0.6398,-0.1985 0.8506,-0.3672c0.2064,-0.1651 0.3464,-0.3501 0.4335,-0.4875c0.0445,-0.0702 0.0779,-0.1323 0.1015,-0.1798c0.0118,-0.0239 0.0213,-0.0445 0.0287,-0.061l0.0094,-0.0218l0.0036,-0.0086l0.0015,-0.0036l0.0006,-0.0017l0.0007,-0.0016c0.0171,-0.0429 0.0303,-0.0873 0.0393,-0.1326l2.9802,-15.02546c0.0095,-0.04805 0.0143,-0.09693 0.0143,-0.14592c0,-0.44001 -0.1658,-0.85841 -0.5556,-1.1123c-0.3332,-0.217 -0.7044,-0.22634 -0.9389,-0.20854c-0.2531,0.01921 -0.4868,0.08168 -0.6436,0.13159c-0.0816,0.02598 -0.1501,0.05104 -0.1994,0.07016c-0.0248,0.00961 -0.0451,0.01786 -0.0603,0.02415l-0.0113,0.00478l-16.71375,6.55654l-0.00216,0.0008c-0.01065,0.0039 -0.02433,0.009 -0.04058,0.0153c-0.03236,0.0126 -0.07573,0.0303 -0.12638,0.0533c-0.09878,0.0448 -0.23736,0.1147 -0.37957,0.2121c-0.22719,0.1556 -0.74968,0.5817 -0.6617,1.285c0.07019,0.5611 0.45457,0.9057 0.68876,1.0714c0.12859,0.091 0.25076,0.156 0.33973,0.1984c0.04127,0.0196 0.12697,0.0544 0.16415,0.0696l0.00939,0.0038l3.16865,1.0667zm14.13836,-9.15174l-0.0023,0.00102c-0.0084,0.00362 -0.0167,0.00708 -0.0252,0.0104l-16.734,6.56452c-0.00874,0.0034 -0.01754,0.0067 -0.0264,0.0098l-0.00931,0.0035c-0.01071,0.0042 -0.02873,0.0115 -0.05135,0.0217c-0.01283,0.0058 -0.02622,0.0122 -0.03987,0.019c0.01875,0.0106 0.0367,0.0197 0.05265,0.0273c0.01531,0.0073 0.02699,0.0123 0.03338,0.0149l3.14263,1.058c0.05752,0.0194 0.11114,0.045 0.16036,0.076l10.37681,-6.07452l0.0097,-0.00574c0.0075,-0.00447 0.0175,-0.01021 0.0294,-0.01694c0.0236,-0.01335 0.056,-0.03112 0.0946,-0.05077c0.072,-0.03665 0.1873,-0.09106 0.3171,-0.13118c0.0903,-0.02793 0.3568,-0.10662 0.6449,-0.01421c0.1778,0.05703 0.3619,0.17964 0.4817,0.38734c0.0594,0.10319 0.0911,0.20685 0.1065,0.30174c0.0408,0.14948 0.0343,0.29709 0.0024,0.42452c-0.0688,0.27451 -0.2616,0.48863 -0.4371,0.65241c-0.1504,0.14041 -2.0958,2.01625 -4.0149,3.86805c-0.9571,0.9234 -1.9043,1.8378 -2.6124,2.5212l-0.465,0.449l5.8719,4.5018c0.1347,0.0482 0.2143,0.0458 0.2511,0.0407c0.0439,-0.006 0.0798,-0.0229 0.1165,-0.0522c0.041,-0.0328 0.0769,-0.0772 0.1037,-0.1195l0.0011,-0.0017l2.8905,-14.57298c-0.0429,0.01031 -0.0863,0.02259 -0.1281,0.03589c-0.0473,0.01507 -0.0864,0.02943 -0.1122,0.03946c-0.0129,0.00497 -0.0221,0.00874 -0.0271,0.01082l-0.0017,0.00067zm-8.4613,12.39394l-1.1715,-0.8982l-0.2838,1.8057l1.4553,-0.9075zm-2.24614,-2.6804l1.16494,-1.1247c0.7081,-0.6835 1.6555,-1.5979 2.6127,-2.5215l0.9725,-0.9382l-6.52007,3.8168l0.03498,0.0825c0.1777,0.4191 0.41736,0.9864 0.66494,1.5788c0.18513,0.4429 0.37872,0.9093 0.55504,1.3411l0.28304,-1.8004c0.02728,-0.1736 0.11208,-0.3238 0.23193,-0.4344z" clip-rule="evenodd" fill-rule="evenodd"/>
 </g>
</svg>